<?xml version="1.0" standalone="no"?>
<!DOCTYPE svg PUBLIC "-//W3C//DTD SVG 20010904//EN"
 "http://www.w3.org/TR/2001/REC-SVG-20010904/DTD/svg10.dtd">
<svg version="1.0" xmlns="http://www.w3.org/2000/svg"
 width="112.000000pt" height="112.000000pt" viewBox="0 0 112.000000 112.000000"
 preserveAspectRatio="xMidYMid meet">
<metadata>
Created by potrace 1.11, written by Peter Selinger 2001-2013
</metadata>
<g transform="translate(0.000000,112.000000) scale(0.100000,-0.100000)"
fill="#000000" stroke="none">
<path d="M405 1086 c-59 -29 -74 -42 -98 -78 -49 -77 -71 -178 -67 -308 2 -96
2 -97 -6 -151 -6 -45 -4 -49 34 -90 40 -45 52 -79 67 -199 9 -71 16 -103 31
-131 37 -74 130 -126 205 -116 41 5 85 36 86 60 0 14 10 82 17 116 8 36 34 71
62 81 13 5 24 14 24 20 0 6 12 15 26 20 26 10 26 12 19 73 -11 94 -9 129 13
193 44 131 49 197 17 224 -8 6 -11 18 -8 26 3 8 -4 25 -15 37 -11 12 -30 42
-42 66 -12 25 -28 51 -36 58 -7 8 -17 20 -21 27 -13 20 -86 71 -118 82 -60 20
-137 16 -190 -10z m410 -306 c-3 -5 -11 -10 -16 -10 -6 0 -7 5 -4 10 3 6 11
10 16 10 6 0 7 -4 4 -10z m-315 -10 c0 -5 -2 -10 -4 -10 -3 0 -8 5 -11 10 -3
6 -1 10 4 10 6 0 11 -4 11 -10z m218 -145 c0 -16 -2 -15 -8 5 -11 34 -11 60 0
35 5 -11 8 -29 8 -40z m-438 -113 c0 -21 -2 -24 -10 -12 -13 20 -13 53 0 45 6
-3 10 -18 10 -33z m250 -56 c0 -2 -8 -10 -17 -17 -16 -13 -17 -12 -4 4 13 16
21 21 21 13z m-30 -40 c0 -2 -8 -10 -17 -17 -16 -13 -17 -12 -4 4 13 16 21 21
21 13z m-37 -51 c-3 -9 -8 -14 -10 -11 -3 3 -2 9 2 15 9 16 15 13 8 -4z"/>
</g>
</svg>
